CATALOG 5012635300313
FILE "Pinball Fantasies (1993)(21st Century Entertainment)(Track 1 of 3)[!].iso" BINARY
  TRACK 01 MODE1/2048
    INDEX 01 00:00:00
FILE "Pinball Fantasies (1993)(21st Century Entertainment)(Track 2 of 3)[!].wav" WAVE
  TRACK 02 AUDIO
    PREGAP 00:02:00
    INDEX 01 00:00:00
FILE "Pinball Fantasies (1993)(21st Century Entertainment)(Track 3 of 3)[!].wav" WAVE
  TRACK 03 AUDIO
    INDEX 00 00:00:00
    INDEX 01 00:02:00
